<svg width="36" height="36" viewBox="0 0 36 36" xmlns="http://www.w3.org/2000/svg">
<path d="M29.7 28.8H6.3C5.805 28.8 5.4 29.205 5.4 29.7V31.5C5.4 31.995 5.805 32.4 6.3 32.4H29.7C30.195 32.4 30.6 31.995 30.6 31.5V29.7C30.6 29.205 30.195 28.8 29.7 28.8ZM33.3 10.8C31.8094 10.8 30.6 12.0094 30.6 13.5C30.6 13.8994 30.69 14.2706 30.8475 14.6138L26.775 17.055C25.9087 17.5725 24.7894 17.28 24.2887 16.4025L19.7044 8.38125C20.3062 7.88625 20.7 7.14375 20.7 6.30001C20.7 4.80938 19.4906 3.60001 18 3.60001C16.5094 3.60001 15.3 4.80938 15.3 6.30001C15.3 7.14375 15.6938 7.88625 16.2956 8.38125L11.7112 16.4025C11.2106 17.28 10.0856 17.5725 9.225 17.055L5.15812 14.6138C5.31 14.2763 5.40562 13.8994 5.40562 13.5C5.40562 12.0094 4.19625 10.8 2.70562 10.8C1.215 10.8 0 12.0094 0 13.5C0 14.9906 1.20938 16.2 2.7 16.2C2.84625 16.2 2.9925 16.1775 3.13313 16.155L7.2 27H28.8L32.8669 16.155C33.0075 16.1775 33.1537 16.2 33.3 16.2C34.7906 16.2 36 14.9906 36 13.5C36 12.0094 34.7906 10.8 33.3 10.8Z" />
</svg>
