<svg width="36" height="36" viewBox="0 0 36 36" xmlns="http://www.w3.org/2000/svg">
<path d="M22.6912 18L29.7274 10.9638C30.5909 10.1004 30.5909 8.70047 29.7274 7.83633L28.1637 6.27258C27.3002 5.40914 25.9003 5.40914 25.0362 6.27258L18 13.3088L10.9638 6.27258C10.1004 5.40914 8.70047 5.40914 7.83633 6.27258L6.27258 7.83633C5.40914 8.69977 5.40914 10.0997 6.27258 10.9638L13.3088 18L6.27258 25.0362C5.40914 25.8996 5.40914 27.2995 6.27258 28.1637L7.83633 29.7274C8.69977 30.5909 10.1004 30.5909 10.9638 29.7274L18 22.6912L25.0362 29.7274C25.8996 30.5909 27.3002 30.5909 28.1637 29.7274L29.7274 28.1637C30.5909 27.3002 30.5909 25.9003 29.7274 25.0362L22.6912 18Z" />
</svg>
