<svg width="36" height="36" viewBox="0 0 36 36" xmlns="http://www.w3.org/2000/svg">
<g clip-path="url(#clip0_9_1179)">
<path d="M25.1625 7.20001L30.8 12.8375C31.0375 13.075 31.0375 13.4625 30.8 13.7L17.15 27.35L11.35 27.9938C10.575 28.0813 9.91875 27.425 10.0063 26.65L10.65 20.85L24.3 7.20001C24.5375 6.96251 24.925 6.96251 25.1625 7.20001ZM35.2875 5.76876L32.2375 2.71876C31.2875 1.76876 29.7437 1.76876 28.7875 2.71876L26.575 4.93126C26.3375 5.16876 26.3375 5.55626 26.575 5.79376L32.2125 11.4313C32.45 11.6688 32.8375 11.6688 33.075 11.4313L35.2875 9.21876C36.2375 8.26251 36.2375 6.71876 35.2875 5.76876ZM24 23.6375V30H4V10H18.3625C18.5625 10 18.75 9.91876 18.8937 9.78126L21.3937 7.28126C21.8687 6.80626 21.5312 6.00001 20.8625 6.00001H3C1.34375 6.00001 0 7.34376 0 9.00001V31C0 32.6563 1.34375 34 3 34H25C26.6562 34 28 32.6563 28 31V21.1375C28 20.4688 27.1938 20.1375 26.7188 20.6063L24.2188 23.1063C24.0812 23.25 24 23.4375 24 23.6375Z"/>
</g>
<defs>
<clipPath id="clip0_9_1179">
<rect width="36" height="36" fill="white"/>
</clipPath>
</defs>
</svg>
