<svg width="36" height="36" viewBox="0 0 36 36" xmlns="http://www.w3.org/2000/svg">
<g clip-path="url(#clip0_9_1190)">
<path d="M17.5231 11.2663L6 20.7569V31C6 31.2652 6.10536 31.5196 6.29289 31.7071C6.48043 31.8946 6.73478 32 7 32L14.0037 31.9819C14.2681 31.9806 14.5212 31.8746 14.7076 31.6872C14.8941 31.4998 14.9988 31.2462 14.9987 30.9819V25C14.9987 24.7348 15.1041 24.4804 15.2916 24.2929C15.4792 24.1054 15.7335 24 15.9987 24H19.9987C20.264 24 20.5183 24.1054 20.7059 24.2929C20.8934 24.4804 20.9987 24.7348 20.9987 25V30.9775C20.9983 31.1091 21.0239 31.2395 21.074 31.3611C21.124 31.4828 21.1976 31.5934 21.2905 31.6866C21.3834 31.7798 21.4938 31.8538 21.6153 31.9042C21.7369 31.9547 21.8672 31.9806 21.9987 31.9806L29 32C29.2652 32 29.5196 31.8946 29.7071 31.7071C29.8946 31.5196 30 31.2652 30 31V20.75L18.4794 11.2663C18.3439 11.1571 18.1752 11.0975 18.0012 11.0975C17.8273 11.0975 17.6586 11.1571 17.5231 11.2663ZM35.725 17.7169L30.5 13.41V4.75313C30.5 4.55422 30.421 4.36345 30.2803 4.2228C30.1397 4.08215 29.9489 4.00313 29.75 4.00313H26.25C26.0511 4.00313 25.8603 4.08215 25.7197 4.2228C25.579 4.36345 25.5 4.55422 25.5 4.75313V9.29125L19.9044 4.6875C19.3674 4.24562 18.6936 4.00401 17.9981 4.00401C17.3027 4.00401 16.6289 4.24562 16.0919 4.6875L0.271251 17.7169C0.195306 17.7796 0.132473 17.8568 0.0863431 17.9438C0.0402131 18.0309 0.0116899 18.1262 0.00240329 18.2243C-0.00688334 18.3224 0.00324861 18.4213 0.0322202 18.5155C0.0611918 18.6097 0.108435 18.6972 0.171251 18.7731L1.765 20.7106C1.82765 20.7868 1.9047 20.8499 1.99175 20.8962C2.0788 20.9426 2.17414 20.9713 2.27231 20.9808C2.37048 20.9902 2.46955 20.9802 2.56385 20.9514C2.65815 20.9225 2.74583 20.8753 2.82188 20.8125L17.5231 8.70375C17.6586 8.59458 17.8273 8.53505 18.0012 8.53505C18.1752 8.53505 18.3439 8.59458 18.4794 8.70375L33.1812 20.8125C33.2572 20.8753 33.3447 20.9226 33.4389 20.9515C33.533 20.9805 33.632 20.9906 33.7301 20.9813C33.8282 20.9721 33.9235 20.9435 34.0105 20.8974C34.0976 20.8513 34.1747 20.7884 34.2375 20.7125L35.8312 18.775C35.894 18.6987 35.941 18.6107 35.9697 18.5161C35.9983 18.4215 36.008 18.3222 35.9981 18.2239C35.9882 18.1255 35.959 18.0301 35.9121 17.9431C35.8653 17.8561 35.8017 17.7792 35.725 17.7169Z" />
</g>
<defs>
<clipPath id="clip0_9_1190">
<rect width="36" height="36" fill="white"/>
</clipPath>
</defs>
</svg>
