<svg width="36" height="36" viewBox="0 0 36 36" fill="none" xmlns="http://www.w3.org/2000/svg">
<path d="M31.5 14.625H21.375V4.5C21.375 3.25758 20.3674 2.25 19.125 2.25H16.875C15.6326 2.25 14.625 3.25758 14.625 4.5V14.625H4.5C3.25758 14.625 2.25 15.6326 2.25 16.875V19.125C2.25 20.3674 3.25758 21.375 4.5 21.375H14.625V31.5C14.625 32.7424 15.6326 33.75 16.875 33.75H19.125C20.3674 33.75 21.375 32.7424 21.375 31.5V21.375H31.5C32.7424 21.375 33.75 20.3674 33.75 19.125V16.875C33.75 15.6326 32.7424 14.625 31.5 14.625Z" />
</svg>
