<svg width="36" height="36" viewBox="0 0 36 36" xmlns="http://www.w3.org/2000/svg">
<path d="M34.875 27H11.25V25.875C11.25 25.2563 10.7437 24.75 10.125 24.75H7.875C7.25625 24.75 6.75 25.2563 6.75 25.875V27H1.125C0.50625 27 0 27.5063 0 28.125V30.375C0 30.9937 0.50625 31.5 1.125 31.5H6.75V32.625C6.75 33.2437 7.25625 33.75 7.875 33.75H10.125C10.7437 33.75 11.25 33.2437 11.25 32.625V31.5H34.875C35.4938 31.5 36 30.9937 36 30.375V28.125C36 27.5063 35.4938 27 34.875 27ZM34.875 15.75H29.25V14.625C29.25 14.0063 28.7437 13.5 28.125 13.5H25.875C25.2563 13.5 24.75 14.0063 24.75 14.625V15.75H1.125C0.50625 15.75 0 16.2563 0 16.875V19.125C0 19.7437 0.50625 20.25 1.125 20.25H24.75V21.375C24.75 21.9937 25.2563 22.5 25.875 22.5H28.125C28.7437 22.5 29.25 21.9937 29.25 21.375V20.25H34.875C35.4938 20.25 36 19.7437 36 19.125V16.875C36 16.2563 35.4938 15.75 34.875 15.75ZM34.875 4.5H20.25V3.375C20.25 2.75625 19.7437 2.25 19.125 2.25H16.875C16.2563 2.25 15.75 2.75625 15.75 3.375V4.5H1.125C0.50625 4.5 0 5.00625 0 5.625V7.875C0 8.49375 0.50625 9 1.125 9H15.75V10.125C15.75 10.7437 16.2563 11.25 16.875 11.25H19.125C19.7437 11.25 20.25 10.7437 20.25 10.125V9H34.875C35.4938 9 36 8.49375 36 7.875V5.625C36 5.00625 35.4938 4.5 34.875 4.5Z"/>
</svg>
