<svg width="36" height="36" viewBox="0 0 36 36" xmlns="http://www.w3.org/2000/svg">
<path d="M34.2703 22.1977L31.275 20.468C31.5773 18.8367 31.5773 17.1633 31.275 15.532L34.2703 13.8023C34.6148 13.6055 34.7695 13.1976 34.657 12.818C33.8766 10.3148 32.5477 8.05077 30.8109 6.1664C30.5438 5.87812 30.1078 5.80781 29.7703 6.00468L26.775 7.73437C25.5164 6.65156 24.068 5.81484 22.5 5.2664V1.81405C22.5 1.42031 22.2258 1.07577 21.8391 0.991399C19.2586 0.414836 16.6148 0.442961 14.1609 0.991399C13.7742 1.07577 13.5 1.42031 13.5 1.81405V5.27343C11.9391 5.8289 10.4906 6.66562 9.225 7.7414L6.23672 6.01171C5.89219 5.81484 5.46328 5.87812 5.19609 6.17343C3.45938 8.05077 2.13047 10.3148 1.35 12.825C1.23047 13.2047 1.39219 13.6125 1.73672 13.8094L4.73203 15.5391C4.42969 17.1703 4.42969 18.8437 4.73203 20.475L1.73672 22.2047C1.39219 22.4016 1.2375 22.8094 1.35 23.1891C2.13047 25.6922 3.45938 27.9562 5.19609 29.8406C5.46328 30.1289 5.89922 30.1992 6.23672 30.0023L9.23203 28.2726C10.4906 29.3555 11.9391 30.1922 13.507 30.7406V34.2C13.507 34.5937 13.7813 34.9383 14.168 35.0226C16.7484 35.5992 19.3922 35.5711 21.8461 35.0226C22.2328 34.9383 22.507 34.5937 22.507 34.2V30.7406C24.068 30.1852 25.5164 29.3484 26.782 28.2726L29.7773 30.0023C30.1219 30.1992 30.5508 30.1359 30.818 29.8406C32.5547 27.9633 33.8836 25.6992 34.6641 23.1891C34.7695 22.8023 34.6148 22.3945 34.2703 22.1977ZM18 23.625C14.8992 23.625 12.375 21.1008 12.375 18C12.375 14.8992 14.8992 12.375 18 12.375C21.1008 12.375 23.625 14.8992 23.625 18C23.625 21.1008 21.1008 23.625 18 23.625Z" />
</svg>
